<?xml version="1.0" encoding="UTF-8"?>
<svg version="1.1" xmlns="http://www.w3.org/2000/svg" width="512" height="512" viewBox="0 0 512 512" xml:space="preserve">
<style type="text/css">
	.st0{fill:currentColor;}
</style>
<g>
    <!-- Path 1 -->
    <path class="st0" d="M0 0 C1.01823853 0.00215515 2.03647705 0.0043103 3.08557129 0.00653076 C17.7097884 0.05623391 32.00304638 0.37042012 46.375 3.3125 C47.37160645 3.50585938 48.36821289 3.69921875 49.39501953 3.8984375 C101.45220736 14.18447431 155.0957667 40.94110849 189.6953125 82.328125 C190.86061284 83.70480541 192.06743226 85.0469828 193.3046875 86.359375 C205.10024695 98.88945647 215.07064899 113.26556275 223.375 128.3125 C223.83616211 129.13669434 224.29732422 129.96088867 224.77246094 130.81005859 C238.00499343 154.62775614 247.13617491 179.88092825 252.625 206.5625 C252.77622314 207.29307617 252.92744629 208.02365234 253.08325195 208.77636719 C256.11362525 224.47065509 256.74821045 239.9924048 256.6875 255.9375 C256.68534485 256.95573853 256.6831897 257.97397705 256.68096924 259.02307129 C256.63127396 273.64497424 256.32561242 287.94383932 253.375 302.3125 C253.07698486 303.83133789 253.07698486 303.83133789 252.77294922 305.38085938 C245.77248787 340.38840993 232.13063377 374.16166586 211.375 403.3125 C210.67286377 404.30080811 210.67286377 404.30080811 209.95654297 405.30908203 C203.82371026 413.8696225 197.32058145 421.85135514 190.05859375 429.4765625 C187.83383008 431.8276228 185.71278987 434.21623852 183.625 436.6875 C180.81447557 439.9314547 177.77652433 442.72451732 174.5 445.4921875 C173.07434979 446.71342463 171.67811315 447.969791 170.3125 449.2578125 C157.78512087 461.04572828 143.41569549 471.01159379 128.375 479.3125 C127.55080566 479.77366211 126.72661133 480.23482422 125.87744141 480.70996094 C96.75250009 496.89106877 65.41156033 506.9947037 32.375 511.3125 C31.72363068 511.39838379 31.07226135 511.48426758 30.40115356 511.57275391 C24.66961522 512.27587679 19.0133893 512.48698299 13.2421875 512.515625 C12.2958847 512.52268463 11.34958191 512.52974426 10.37460327 512.53701782 C-28.82165981 512.76307521 -28.82165981 512.76307521 -45.625 509.3125 C-46.63755859 509.11382324 -47.65011719 508.91514648 -48.69335938 508.71044922 C-83.70090993 501.70998787 -117.47416586 488.06813377 -146.625 467.3125 C-147.61330811 466.61036377 -147.61330811 466.61036377 -148.62158203 465.89404297 C-157.1821225 459.76121026 -165.16385514 453.25808145 -172.7890625 445.99609375 C-175.1401228 443.77133008 -177.52873852 441.65028987 -180 439.5625 C-183.2439547 436.75197557 -186.03701732 433.71402433 -188.8046875 430.4375 C-190.02592463 429.01184979 -191.282291 427.61561315 -192.5703125 426.25 C-204.35822828 413.72262087 -214.32409379 399.35319549 -222.625 384.3125 C-223.08616211 383.48830566 -223.54732422 382.66411133 -224.02246094 381.81494141 C-237.25499343 357.99724386 -246.38617491 332.74407175 -251.875 306.0625 C-252.02622314 305.33192383 -252.17744629 304.60134766 -252.33325195 303.84863281 C-255.36362525 288.15434491 -255.99821045 272.6325952 -255.9375 256.6875 C-255.93534485 255.66926147 -255.9331897 254.65102295 -255.93096924 253.60192871 C-255.88127396 238.98002576 -255.57561242 224.68116068 -252.625 210.3125 C-252.42632324 209.29994141 -252.22764648 208.28738281 -252.02294922 207.24414062 C-241.62207234 155.23196533 -214.94389922 101.54784975 -173.609375 66.9921875 C-172.23269459 65.82688716 -170.8905172 64.62006774 -169.578125 63.3828125 C-157.0451139 51.58449516 -142.66680718 41.63220985 -127.625 33.3125 C-126.86026367 32.88372559 -126.09552734 32.45495117 -125.30761719 32.01318359 C-102.05096085 19.0616794 -77.44638702 10.11623395 -51.4375 4.5625 C-50.51267822 4.36366211 -49.58785645 4.16482422 -48.63500977 3.95996094 C-32.4283142 0.66808618 -16.49462039 -0.06280274 0 0 Z M-130.63671875 149.20703125 C-154.00725884 172.77314072 -163.5558189 210.23608331 -163.86328125 242.53515625 C-163.8730751 243.39003128 -163.88286896 244.24490631 -163.89295959 245.12568665 C-164.0599903 263.4775484 -164.1528942 281.39942498 -159.625 299.3125 C-159.40537598 300.18938477 -159.18575195 301.06626953 -158.95947266 301.96972656 C-153.22203398 324.11550897 -143.90837533 344.89859661 -127.625 361.3125 C-126.8 362.17875 -125.975 363.045 -125.125 363.9375 C-124.3 364.72125 -123.475 365.505 -122.625 366.3125 C-121.72974609 367.20001953 -121.72974609 367.20001953 -120.81640625 368.10546875 C-104.44624542 383.6345938 -80.99183504 391.56297445 -58.625 391.3125 C-38.08806869 390.54368863 -19.33475509 383.82508654 -3.625 370.3125 C-2.76390625 369.59578125 -1.9028125 368.8790625 -1.015625 368.140625 C20.48024494 349.55944929 32.89624011 323.28061667 45.375 298.3125 C48.11063403 303.64407293 50.55626115 308.98699288 52.765625 314.5546875 C53.0739325 315.32193146 53.38223999 316.08917542 53.69989014 316.87966919 C54.99906645 320.11311189 56.29050015 323.34962989 57.58251953 326.5859375 C61.13933434 335.4825322 64.75605884 344.34640742 68.60546875 353.12109375 C68.92296082 353.85379486 69.24045288 354.58649597 69.56756592 355.34140015 C76.46135761 370.86787475 88.1724531 382.41543527 104.015625 388.55078125 C114.45421707 391.9208565 127.92944193 391.98875302 137.99609375 387.5625 C150.84819369 380.80934404 159.50759618 371.38878032 163.98046875 357.421875 C165.10475874 351.41081958 166.06838175 343.00987213 162.6875 337.625 C158.71569744 333.65319744 156.07324156 332.13693102 150.4375 331.875 C145.69847205 332.03014675 142.96656711 333.07132968 139.375 336.3125 C136.73612255 340.06455156 135.80749452 343.32408889 135 347.8125 C133.8341454 353.26549188 132.90872335 356.05751913 128.375 359.3125 C123.91675737 361.54162131 118.21273212 360.80081568 113.375 360.3125 C106.09008003 357.7651587 100.37525649 351.06972996 96.83740234 344.42431641 C95.22295889 340.85709876 93.71766801 337.25416078 92.25 333.625 C91.67382785 332.22837612 91.09689625 330.83206535 90.51928711 329.43603516 C88.84390758 325.36817331 87.19540574 321.28975681 85.54888916 317.21014404 C84.26269146 314.03527607 82.96490231 310.86529783 81.66552734 307.69580078 C79.22239704 301.73245202 76.79988454 295.7610632 74.39044189 289.7840271 C73.42380328 287.3912666 72.45226179 285.00048079 71.47576904 282.61172485 C70.09387943 279.22400045 68.7338294 275.82827145 67.37890625 272.4296875 C66.95880783 271.41113174 66.53870941 270.39257599 66.10588074 269.34315491 C62.391085 259.9017951 64.3270468 253.80084521 67.8125 244.6328125 C68.16472122 243.687547 68.51694244 242.74228149 68.87983704 241.76837158 C69.6415751 239.72434181 70.40614646 237.68136613 71.17324829 235.63934326 C73.23101744 230.15680119 75.26337233 224.66489856 77.29296875 219.171875 C77.92237617 217.46872635 77.92237617 217.46872635 78.5644989 215.73117065 C83.09170858 203.43639084 87.40986433 191.07094529 91.6875 178.6875 C92.04094482 177.66577698 92.39438965 176.64405396 92.75854492 175.59136963 C94.69605088 169.98666817 96.62248128 164.37833149 98.53622437 158.76547241 C99.33242437 156.43701105 100.13676115 154.11150695 100.94262695 151.78637695 C101.40220752 150.44494478 101.86146139 149.10340062 102.3203125 147.76171875 C102.70848145 146.63596436 103.09665039 145.51020996 103.49658203 144.3503418 C105.2448986 138.30412081 105.47210657 133.54734671 102.6875 127.875 C99.65615306 124.51593988 97.63360352 122.61894369 93.04296875 121.99609375 C88.80001946 121.79889521 85.91620617 122.07196392 82 123.8125 C76.05586141 129.47358437 73.95001523 138.02173149 71.43359375 145.6328125 C71.06903076 146.7182132 70.70446777 147.80361389 70.32885742 148.92190552 C69.55244056 151.23398439 68.77840087 153.54686271 68.00656128 155.86047363 C66.00827246 161.84670893 63.9895908 167.82603363 61.96875 173.8046875 C61.57272079 174.97668701 61.17669159 176.14868652 60.7686615 177.35620117 C57.56761198 186.80216368 54.26020292 196.20386763 50.8125 205.5625 C50.36640381 206.77824707 49.92030762 207.99399414 49.46069336 209.24658203 C46.5163538 217.1711462 46.5163538 217.1711462 45.375 218.3125 C44.80168945 217.104729 44.80168945 217.104729 44.21679688 215.87255859 C32.26620453 190.75258605 20.28655216 166.22405216 0.375 146.3125 C-0.72908203 145.20841797 -0.72908203 145.20841797 -1.85546875 144.08203125 C-37.93587919 110.10466841 -96.34628585 116.19592892 -130.63671875 149.20703125 Z" transform="translate(255.625,-0.3125)"/>
    
    <!-- Path 2 -->
    <path class="st0" d="M0 0 C1.22783203 0.90492188 1.22783203 0.90492188 2.48046875 1.828125 C3.50720703 2.57835937 3.50720703 2.57835937 4.5546875 3.34375 C15.76226891 12.34618862 23.60400792 25.41159835 30.48046875 37.828125 C30.91407715 38.6010791 31.34768555 39.3740332 31.79443359 40.17041016 C38.4492192 52.13119684 44.27564144 64.43393425 49.75872803 76.96716309 C50.44424801 78.53206624 51.13499045 80.09469277 51.83111572 81.65490723 C52.81177422 83.86152176 53.76839827 86.07706747 54.71875 88.296875 C55.1615052 89.28158783 55.1615052 89.28158783 55.61320496 90.28619385 C57.96102776 95.90061743 57.47969476 99.95639346 55.51586914 105.6003418 C55.12391357 106.48375244 54.73195801 107.36716309 54.328125 108.27734375 C53.66586914 109.78155884 53.66586914 109.78155884 52.99023438 111.31616211 C52.51263672 112.37198486 52.03503906 113.42780762 51.54296875 114.515625 C51.04861328 115.6197876 50.55425781 116.7239502 50.04492188 117.86157227 C19.09471813 186.43722326 19.09471813 186.43722326 -14.328125 199.1015625 C-27.50021645 203.46877999 -44.90377743 202.44535845 -57.51953125 196.828125 C-58.39222656 196.46589844 -59.26492187 196.10367188 -60.1640625 195.73046875 C-79.75384049 186.85338041 -91.22835066 168.85186675 -99.140625 149.6640625 C-100.78493694 145.27380773 -102.05838041 140.79197964 -103.26953125 136.265625 C-103.56766724 135.15151245 -103.56766724 135.15151245 -103.87182617 134.01489258 C-107.22233758 120.76076923 -107.8882383 107.85999503 -107.83203125 94.265625 C-107.83054077 93.37827667 -107.82905029 92.49092834 -107.82751465 91.57669067 C-107.78880698 78.78221606 -107.41502934 66.34304183 -104.51953125 53.828125 C-104.3803125 53.17279785 -104.24109375 52.5174707 -104.09765625 51.84228516 C-99.69236275 31.34033471 -90.08478498 12.26622483 -72.45703125 0.140625 C-51.25689582 -12.81666057 -20.6777271 -14.20288326 0 0 Z " transform="translate(228.51953125,160.171875)"/>
</g>
</svg>